<?xml version="1.0" encoding="UTF-8"?>
<svg xmlns="http://www.w3.org/2000/svg" viewBox="0 0 227 140">
  <defs>
    <style>
      .cls-1 {
        fill: #fff;
      }

      .cls-2, .cls-3 {
        fill-rule: evenodd;
      }

      .cls-2, .cls-4 {
        fill: #ff781e;
      }

      .cls-5 {
        fill: #f67a08;
      }

      .cls-3 {
        fill: #ffc8a4;
      }

      .cls-6 {
        fill: #362967;
      }
    </style>
  </defs>
  <g id="tlo">
    <path class="cls-6" d="M0,95.04H227v34.96c0,5.52-4.48,10-10,10H10c-5.52,0-10-4.48-10-10v-34.96H0Z"/>
    <path class="cls-4" d="M10,0H217c5.52,0,10,4.48,10,10V95.04H0V10C0,4.48,4.48,0,10,0Z"/>
  </g>
  <g id="sygnet">
    <path class="cls-2" d="M36.14,107.39c5.48,0,9.93,4.43,9.93,9.89s-4.45,9.89-9.93,9.89-9.93-4.43-9.93-9.89,4.45-9.89,9.93-9.89Z"/>
    <path class="cls-5" d="M47.66,105.31h-4.66l-8.19,15.99h4.66l8.19-15.99Z"/>
    <path class="cls-3" d="M33.78,123.33h4.66l5.93-11.59c-.94-1.36-1.91-2.14-3.12-3l-7.47,14.59Z"/>
    <path class="cls-1" d="M28.48,113.66l5.11,9.67h4.84l-5.11-9.67h-4.84Z"/>
  </g>
  <g id="txt">
    <g>
      <path class="cls-1" d="M53.12,112.51h2.33c1.05,0,1.83,.07,2.33,.25,1.02,.39,1.65,1.29,1.65,2.42,0,.95-.45,1.75-1.16,2.2s-1.75,.5-3.14,.5h-.99v4.68h-1.01v-10.06Zm1.01,.98v3.42c.57,.01,1.15,0,1.67,0,.87,0,1.54-.06,1.99-.42,.35-.28,.59-.8,.59-1.3s-.25-1.02-.63-1.32c-.45-.34-1.05-.38-1.83-.38h-1.78Z"/>
      <path class="cls-1" d="M61.75,112.51h1.01v10.06h-1.01v-10.06Z"/>
      <path class="cls-1" d="M64.55,113.49v-.98h5.52v.98h-2.24v9.08h-1.01v-9.08h-2.27Z"/>
      <path class="cls-1" d="M77.59,115.13h.94v7.44h-.94v-1.27c-.81,.98-1.83,1.46-3,1.46-2.17,0-3.81-1.81-3.81-3.92s1.68-3.89,3.84-3.89c1.2,0,2.23,.52,2.97,1.55v-1.36Zm-5.83,3.73c0,1.61,1.26,3.03,2.93,3.03,1.53,0,2.97-1.15,2.97-3,0-1.72-1.29-3.03-2.96-3.03s-2.94,1.4-2.94,3Z"/>
      <path class="cls-1" d="M80.32,115.13h1.15l1.98,2.75,1.98-2.75h1.13l-2.54,3.53,2.86,3.91h-1.16l-2.27-3.12-2.24,3.12h-1.15l2.82-3.91-2.55-3.53Z"/>
      <path class="cls-1" d="M90.27,121.91c0,.48-.38,.85-.84,.85s-.84-.39-.84-.85,.38-.85,.84-.85,.84,.38,.84,.85Z"/>
      <path class="cls-1" d="M93.72,116.49c.74-1.04,1.76-1.55,2.96-1.55,2.17,0,3.85,1.78,3.85,3.89s-1.64,3.92-3.82,3.92c-1.16,0-2.17-.48-2.98-1.46v3.99h-.95v-10.16h.95v1.36Zm-.07,2.4c0,1.85,1.43,3,2.96,3,1.65,0,2.94-1.4,2.94-3.03s-1.23-3-2.94-3-2.96,1.3-2.96,3.03Z"/>
      <path class="cls-1" d="M102.65,112.25h.95v10.31h-.95v-10.31Z"/>
    </g>
    <g>
      <path class="cls-1" d="M27.77,32.69v-14.7h2.4v14.7h-2.4Zm2-4.78v-2.1h3.04c.64,0,1.17-.12,1.59-.37,.42-.25,.74-.59,.97-1.02,.23-.43,.34-.92,.34-1.47s-.11-1.06-.34-1.49c-.23-.43-.55-.77-.97-1.01-.42-.24-.95-.36-1.59-.36h-3.04v-2.1h2.76c1.21,0,2.24,.2,3.07,.59s1.47,.95,1.9,1.66c.43,.71,.65,1.56,.65,2.55v.32c0,.97-.22,1.82-.65,2.54-.43,.72-1.07,1.28-1.9,1.67-.83,.39-1.86,.59-3.07,.59h-2.76Z"/>
      <path class="cls-1" d="M40.27,32.69v-10.78h1.86v4.5h-.08c0-1.55,.34-2.7,1.02-3.47,.68-.77,1.69-1.15,3.02-1.15h.38v2.06h-.72c-1.01,0-1.79,.27-2.33,.81-.54,.54-.81,1.31-.81,2.31v5.72h-2.34Z"/>
      <path class="cls-1" d="M48.09,32.69v-2.18l5.6-6.7v.32l-.38-.52,.3,.14h-5.56v-1.84h7.94v2.18l-5.6,6.7v-.28l.4,.54-.3-.2h5.76v1.84h-8.16Z"/>
      <path class="cls-1" d="M63.06,33.05c-.93,0-1.75-.16-2.44-.48-.69-.32-1.26-.74-1.7-1.27-.44-.53-.77-1.12-.99-1.78s-.33-1.34-.33-2.03v-.38c0-.71,.11-1.39,.33-2.05,.22-.66,.55-1.25,.99-1.78,.44-.53,1-.95,1.67-1.26,.67-.31,1.46-.47,2.35-.47,1.16,0,2.13,.25,2.9,.76,.77,.51,1.35,1.16,1.74,1.97,.39,.81,.58,1.68,.58,2.61v.94h-9.56v-1.58h7.98l-.64,.8c0-.72-.11-1.34-.34-1.87s-.56-.93-1-1.22-.99-.43-1.66-.43-1.27,.16-1.74,.48c-.47,.32-.81,.76-1.04,1.32s-.34,1.22-.34,1.98c0,.72,.11,1.36,.34,1.93,.23,.57,.58,1.01,1.06,1.34,.48,.33,1.09,.49,1.84,.49s1.36-.16,1.84-.49c.48-.33,.77-.71,.88-1.15h2.18c-.15,.73-.44,1.37-.89,1.92-.45,.55-1.01,.97-1.69,1.26-.68,.29-1.45,.44-2.32,.44Z"/>
      <path class="cls-1" d="M70.65,32.69v-14.6h2.34v14.6h-2.34Zm7.48,0l-3.84-5.02h-1.68l4.74-5.76h2.48l-4.36,5.24,.1-1.2,5.24,6.74h-2.68Z"/>
      <path class="cls-1" d="M85.44,32.97c-.79,0-1.47-.14-2.06-.41-.59-.27-1.04-.67-1.36-1.2-.32-.53-.48-1.16-.48-1.89,0-.77,.18-1.41,.55-1.92,.37-.51,.89-.89,1.57-1.14,.68-.25,1.49-.38,2.44-.38h2.7v1.54h-2.76c-.71,0-1.25,.17-1.62,.51-.37,.34-.56,.78-.56,1.33s.19,.98,.56,1.31c.37,.33,.91,.49,1.62,.49,.41,0,.81-.08,1.18-.23s.68-.41,.93-.77c.25-.36,.38-.87,.41-1.52l.6,.78c-.07,.76-.25,1.4-.55,1.91-.3,.51-.71,.91-1.24,1.18-.53,.27-1.17,.41-1.93,.41Zm3.5-.28v-3.22h-.38v-3.64c0-.67-.17-1.17-.52-1.52-.35-.35-.86-.52-1.54-.52-.37,0-.79,0-1.24,.02s-.9,.03-1.33,.05-.82,.04-1.15,.07v-2.02c.29-.03,.62-.05,.97-.07,.35-.02,.72-.04,1.1-.05s.74-.02,1.09-.02c1.09,0,2,.14,2.72,.42,.72,.28,1.26,.72,1.61,1.33,.35,.61,.53,1.42,.53,2.43v6.74h-1.86Z"/>
      <path class="cls-1" d="M93.21,32.69v-2.18l5.6-6.7v.32l-.38-.52,.3,.14h-5.56v-1.84h7.94v2.18l-5.6,6.7v-.28l.4,.54-.3-.2h5.76v1.84h-8.16Zm3.86-12.8c-.48,0-.83-.13-1.06-.38-.23-.25-.34-.57-.34-.96s.11-.71,.34-.96c.23-.25,.58-.38,1.06-.38s.83,.13,1.05,.38c.22,.25,.33,.57,.33,.96s-.11,.71-.33,.96c-.22,.25-.57,.38-1.05,.38Z"/>
      <path class="cls-1" d="M111.93,33.01c-1.45,0-2.58-.31-3.39-.92-.81-.61-1.23-1.46-1.27-2.54h2.16c.03,.4,.23,.77,.62,1.1s1.02,.5,1.9,.5c.75,0,1.33-.15,1.76-.44,.43-.29,.64-.66,.64-1.1,0-.4-.16-.72-.47-.95-.31-.23-.84-.39-1.59-.47l-1.06-.1c-1.11-.12-1.98-.45-2.63-.98-.65-.53-.97-1.25-.97-2.16,0-.72,.18-1.33,.54-1.82,.36-.49,.86-.87,1.49-1.14,.63-.27,1.36-.4,2.19-.4,1.28,0,2.31,.28,3.1,.85,.79,.57,1.19,1.4,1.22,2.49h-2.14c-.03-.41-.22-.76-.58-1.04-.36-.28-.89-.42-1.6-.42-.67,0-1.18,.13-1.53,.4s-.53,.61-.53,1.02c0,.37,.13,.67,.4,.88s.7,.35,1.3,.42l1.06,.1c1.21,.13,2.18,.47,2.89,1.01,.71,.54,1.07,1.29,1.07,2.25,0,.69-.19,1.3-.58,1.82-.39,.52-.92,.92-1.61,1.21-.69,.29-1.48,.43-2.39,.43Z"/>
      <path class="cls-1" d="M120.61,32.69l-3-10.78h2.28l2.86,10.78h-2.14Zm.76,0v-1.9h2.22v1.9h-2.22Zm.92,0l2.1-10.42h2.9l2.46,10.42h-1.92l-2.48-10.36h.9l-2.16,10.36h-1.8Zm6.08,0v-1.9h2.22v1.9h-2.22Zm.9,0l2.52-10.78h2.14l-2.64,10.78h-2.02Z"/>
      <path class="cls-1" d="M141.09,33.05c-.95,0-1.78-.16-2.5-.47-.72-.31-1.33-.73-1.82-1.25-.49-.52-.87-1.11-1.12-1.77s-.38-1.34-.38-2.05v-.4c0-.71,.13-1.39,.39-2.06,.26-.67,.64-1.26,1.14-1.79,.5-.53,1.11-.94,1.83-1.25,.72-.31,1.54-.46,2.46-.46s1.74,.15,2.45,.46c.71,.31,1.32,.72,1.83,1.25,.51,.53,.89,1.12,1.15,1.79,.26,.67,.39,1.35,.39,2.06v.4c0,.71-.13,1.39-.38,2.05s-.63,1.25-1.12,1.77c-.49,.52-1.1,.94-1.82,1.25-.72,.31-1.55,.47-2.5,.47Zm0-2.04c.73,0,1.36-.16,1.88-.49,.52-.33,.92-.77,1.19-1.33,.27-.56,.41-1.19,.41-1.88s-.14-1.34-.42-1.9c-.28-.56-.68-1-1.2-1.33-.52-.33-1.14-.49-1.86-.49s-1.34,.16-1.86,.49c-.52,.33-.92,.77-1.2,1.33-.28,.56-.42,1.19-.42,1.9s.14,1.32,.41,1.88c.27,.56,.67,1,1.19,1.33,.52,.33,1.15,.49,1.88,.49Zm-1.18-10.56l1.78-4.04h2.44l-2.24,4.04h-1.98Z"/>
      <path class="cls-1" d="M147.38,36.77v-2.04h.98c.51,0,.89-.14,1.16-.41s.4-.66,.4-1.15v-11.26h2.26v11.04c0,.95-.14,1.7-.41,2.26-.27,.56-.71,.96-1.3,1.2-.59,.24-1.37,.36-2.33,.36h-.76Zm.9-13.06v-1.8h3.9v1.8h-3.9Zm2.32-3.42c-.48,0-.84-.13-1.07-.38-.23-.25-.35-.58-.35-.98s.12-.71,.35-.97c.23-.26,.59-.39,1.07-.39s.85,.13,1.08,.39c.23,.26,.34,.58,.34,.97s-.11,.73-.34,.98-.59,.38-1.08,.38Z"/>
      <path class="cls-1" d="M162.2,32.69v-13.24l.88,.68h-4v-2.04h5.48v14.6h-2.36Z"/>
      <path class="cls-1" d="M168.74,35.93l-1.84-.72,1.94-5.48,1.96,.74-2.06,5.46Z"/>
      <path class="cls-1" d="M178.13,33.05c-1.13,0-2.1-.23-2.89-.68-.79-.45-1.4-1.06-1.81-1.81s-.62-1.56-.62-2.43h2.3c0,.56,.13,1.06,.38,1.49,.25,.43,.61,.78,1.06,1.03,.45,.25,.99,.38,1.6,.38s1.15-.13,1.61-.38c.46-.25,.82-.61,1.07-1.06,.25-.45,.38-.97,.38-1.54s-.12-1.09-.37-1.54c-.25-.45-.6-.82-1.06-1.09-.46-.27-1-.41-1.63-.41-.48,0-.95,.09-1.42,.27-.47,.18-.83,.42-1.1,.73h-2.2l.74-7.92h8.06v2.02h-6.88l.74-.72-.52,5.36-.6-.18c.39-.43,.86-.77,1.42-1.03,.56-.26,1.23-.39,2-.39,1.11,0,2.04,.23,2.79,.68,.75,.45,1.33,1.04,1.73,1.77,.4,.73,.6,1.5,.6,2.33v.26c0,.83-.21,1.61-.62,2.35-.41,.74-1.02,1.34-1.82,1.81-.8,.47-1.78,.7-2.94,.7Z"/>
      <path class="cls-1" d="M187.85,25.99c-.77,0-1.4-.17-1.89-.52-.49-.35-.85-.81-1.08-1.39s-.35-1.22-.35-1.91v-.52c0-.73,.12-1.39,.36-1.96,.24-.57,.61-1.02,1.1-1.35,.49-.33,1.11-.49,1.86-.49s1.38,.16,1.87,.49c.49,.33,.85,.78,1.09,1.35,.24,.57,.36,1.23,.36,1.96v.52c0,.69-.12,1.33-.35,1.91s-.59,1.04-1.07,1.39c-.48,.35-1.11,.52-1.9,.52Zm0-1.6c.55,0,.95-.2,1.22-.59,.27-.39,.4-1.02,.4-1.87s-.14-1.53-.41-1.92c-.27-.39-.68-.58-1.21-.58s-.94,.19-1.21,.58c-.27,.39-.41,1.02-.41,1.9s.13,1.48,.4,1.88,.67,.6,1.22,.6Zm1.06,8.3l5.44-14.6h1.92l-5.46,14.6h-1.9Zm8.34,.24c-.77,0-1.41-.17-1.9-.52-.49-.35-.86-.81-1.09-1.39s-.35-1.21-.35-1.89v-.52c0-.73,.12-1.39,.36-1.96,.24-.57,.61-1.03,1.11-1.36,.5-.33,1.12-.5,1.87-.5s1.37,.17,1.86,.5c.49,.33,.86,.79,1.1,1.36s.36,1.23,.36,1.96v.52c0,.68-.12,1.31-.35,1.89s-.59,1.04-1.08,1.39c-.49,.35-1.12,.52-1.89,.52Zm0-1.58c.55,0,.95-.2,1.21-.6,.26-.4,.39-1.02,.39-1.86,0-.89-.13-1.53-.4-1.92-.27-.39-.67-.58-1.2-.58s-.94,.19-1.21,.58c-.27,.39-.41,1.02-.41,1.9s.13,1.46,.4,1.87c.27,.41,.67,.61,1.22,.61Z"/>
      <path class="cls-1" d="M25.78,58.69v-10.78h1.86v4.62h-.22c0-1.07,.14-1.97,.43-2.7,.29-.73,.72-1.29,1.31-1.67,.59-.38,1.31-.57,2.18-.57h.1c1.33,0,2.33,.42,2.98,1.26s.98,2.07,.98,3.68v6.16h-2.34v-6.48c0-.75-.21-1.35-.64-1.81s-1.01-.69-1.76-.69-1.37,.24-1.84,.71c-.47,.47-.7,1.1-.7,1.89v6.38h-2.34Z"/>
      <path class="cls-1" d="M41.52,58.97c-.79,0-1.47-.14-2.06-.41-.59-.27-1.04-.67-1.36-1.2-.32-.53-.48-1.16-.48-1.89,0-.77,.18-1.41,.55-1.92,.37-.51,.89-.89,1.57-1.14,.68-.25,1.49-.38,2.44-.38h2.7v1.54h-2.76c-.71,0-1.25,.17-1.62,.51-.37,.34-.56,.78-.56,1.33s.19,.98,.56,1.31c.37,.33,.91,.49,1.62,.49,.41,0,.81-.08,1.18-.23s.68-.41,.93-.77c.25-.36,.38-.87,.41-1.52l.6,.78c-.07,.76-.25,1.4-.55,1.91-.3,.51-.71,.91-1.24,1.18-.53,.27-1.17,.41-1.93,.41Zm3.5-.28v-3.22h-.38v-3.64c0-.67-.17-1.17-.52-1.52-.35-.35-.86-.52-1.54-.52-.37,0-.79,0-1.24,.02s-.9,.03-1.33,.05c-.43,.02-.82,.04-1.15,.07v-2.02c.29-.03,.62-.05,.97-.07,.35-.02,.72-.04,1.1-.05,.38-.01,.74-.02,1.09-.02,1.09,0,2,.14,2.72,.42,.72,.28,1.26,.72,1.61,1.33s.53,1.42,.53,2.43v6.74h-1.86Z"/>
      <path class="cls-1" d="M53.81,59.01c-1.45,0-2.58-.31-3.39-.92-.81-.61-1.23-1.46-1.27-2.54h2.16c.03,.4,.23,.77,.62,1.1s1.02,.5,1.9,.5c.75,0,1.33-.15,1.76-.44,.43-.29,.64-.66,.64-1.1,0-.4-.16-.72-.47-.95-.31-.23-.84-.39-1.59-.47l-1.06-.1c-1.11-.12-1.98-.45-2.63-.98-.65-.53-.97-1.25-.97-2.16,0-.72,.18-1.33,.54-1.82,.36-.49,.86-.87,1.49-1.14,.63-.27,1.36-.4,2.19-.4,1.28,0,2.31,.28,3.1,.85,.79,.57,1.19,1.4,1.22,2.49h-2.14c-.03-.41-.22-.76-.58-1.04s-.89-.42-1.6-.42c-.67,0-1.18,.13-1.53,.4-.35,.27-.53,.61-.53,1.02,0,.37,.13,.67,.4,.88s.7,.35,1.3,.42l1.06,.1c1.21,.13,2.18,.47,2.89,1.01,.71,.54,1.07,1.29,1.07,2.25,0,.69-.19,1.3-.58,1.82-.39,.52-.92,.92-1.61,1.21-.69,.29-1.48,.43-2.39,.43Z"/>
      <path class="cls-1" d="M60.19,58.69v-2.18l5.6-6.7v.32l-.38-.52,.3,.14h-5.56v-1.84h7.94v2.18l-5.6,6.7v-.28l.4,.54-.3-.2h5.76v1.84h-8.16Z"/>
      <path class="cls-1" d="M75.17,59.05c-.93,0-1.75-.16-2.44-.48-.69-.32-1.26-.74-1.7-1.27-.44-.53-.77-1.12-.99-1.78s-.33-1.34-.33-2.03v-.38c0-.71,.11-1.39,.33-2.05s.55-1.25,.99-1.78c.44-.53,1-.95,1.67-1.26,.67-.31,1.46-.47,2.35-.47,1.16,0,2.13,.25,2.9,.76,.77,.51,1.35,1.16,1.74,1.97,.39,.81,.58,1.68,.58,2.61v.94h-9.56v-1.58h7.98l-.64,.8c0-.72-.11-1.34-.34-1.87s-.56-.93-1-1.22c-.44-.29-.99-.43-1.66-.43s-1.27,.16-1.74,.48c-.47,.32-.81,.76-1.04,1.32-.23,.56-.34,1.22-.34,1.98,0,.72,.11,1.36,.34,1.93,.23,.57,.58,1.01,1.06,1.34,.48,.33,1.09,.49,1.84,.49s1.36-.16,1.84-.49c.48-.33,.77-.71,.88-1.15h2.18c-.15,.73-.44,1.37-.89,1.92-.45,.55-1.01,.97-1.69,1.26-.68,.29-1.45,.44-2.32,.44Z"/>
      <path class="cls-1" d="M80.78,62.77v-2.04h.98c.51,0,.89-.14,1.16-.41s.4-.66,.4-1.15v-11.26h2.26v11.04c0,.95-.14,1.7-.41,2.26-.27,.56-.71,.96-1.3,1.2-.59,.24-1.37,.36-2.33,.36h-.76Zm.9-13.06v-1.8h3.9v1.8h-3.9Zm2.32-3.42c-.48,0-.84-.13-1.07-.38-.23-.25-.35-.58-.35-.98s.12-.71,.35-.97c.23-.26,.59-.39,1.07-.39s.85,.13,1.08,.39c.23,.26,.34,.58,.34,.97s-.11,.73-.34,.98c-.23,.25-.59,.38-1.08,.38Z"/>
      <path class="cls-1" d="M98.48,59.05c-.95,0-1.78-.16-2.5-.47-.72-.31-1.33-.73-1.82-1.25-.49-.52-.87-1.11-1.12-1.77s-.38-1.34-.38-2.05v-.4c0-.71,.13-1.39,.39-2.06,.26-.67,.64-1.26,1.14-1.79,.5-.53,1.11-.94,1.83-1.25,.72-.31,1.54-.46,2.46-.46s1.74,.15,2.45,.46c.71,.31,1.32,.72,1.83,1.25,.51,.53,.89,1.12,1.15,1.79s.39,1.35,.39,2.06v.4c0,.71-.13,1.39-.38,2.05s-.63,1.25-1.12,1.77c-.49,.52-1.1,.94-1.82,1.25-.72,.31-1.55,.47-2.5,.47Zm0-2.04c.73,0,1.36-.16,1.88-.49,.52-.33,.92-.77,1.19-1.33s.41-1.19,.41-1.88-.14-1.34-.42-1.9c-.28-.56-.68-1-1.2-1.33-.52-.33-1.14-.49-1.86-.49s-1.34,.16-1.86,.49c-.52,.33-.92,.77-1.2,1.33-.28,.56-.42,1.19-.42,1.9s.14,1.32,.41,1.88,.67,1,1.19,1.33c.52,.33,1.15,.49,1.88,.49Z"/>
      <path class="cls-1" d="M106.83,58.69v-10.78h1.86v4.5h-.08c0-1.55,.34-2.7,1.02-3.47,.68-.77,1.69-1.15,3.02-1.15h.38v2.06h-.72c-1.01,0-1.79,.27-2.33,.81s-.81,1.31-.81,2.31v5.72h-2.34Z"/>
      <path class="cls-1" d="M119.12,62.91c-.51,0-1.02-.02-1.54-.06-.52-.04-1.01-.09-1.46-.16v-1.98c.48,.07,.99,.12,1.53,.17,.54,.05,1.04,.07,1.51,.07,.93,0,1.68-.12,2.25-.36,.57-.24,.98-.61,1.24-1.11s.39-1.15,.39-1.95v-2.08l.62-1.44c-.04,1.04-.26,1.91-.65,2.62-.39,.71-.91,1.24-1.56,1.6s-1.38,.54-2.21,.54c-.75,0-1.43-.14-2.04-.42s-1.14-.67-1.58-1.18c-.44-.51-.78-1.09-1.02-1.75-.24-.66-.36-1.36-.36-2.11v-.38c0-.76,.12-1.47,.37-2.12,.25-.65,.6-1.22,1.05-1.71s1-.86,1.63-1.13c.63-.27,1.33-.4,2.09-.4,.88,0,1.66,.19,2.33,.57,.67,.38,1.2,.94,1.59,1.67s.59,1.63,.62,2.68l-.52,.06v-4.64h1.86v9.5c0,1.31-.21,2.36-.63,3.17s-1.08,1.4-1.98,1.77c-.9,.37-2.08,.56-3.53,.56Zm.7-6.22c.59,0,1.12-.13,1.61-.39,.49-.26,.87-.63,1.16-1.12,.29-.49,.43-1.07,.43-1.75v-.82c0-.67-.15-1.23-.45-1.69-.3-.46-.69-.81-1.17-1.05-.48-.24-1-.36-1.56-.36-.64,0-1.21,.15-1.7,.45-.49,.3-.88,.72-1.15,1.26s-.41,1.17-.41,1.89,.14,1.37,.42,1.91c.28,.54,.66,.95,1.15,1.24,.49,.29,1.04,.43,1.67,.43Z"/>
      <path class="cls-1" d="M131.49,58.97c-.79,0-1.47-.14-2.06-.41-.59-.27-1.04-.67-1.36-1.2-.32-.53-.48-1.16-.48-1.89,0-.77,.18-1.41,.55-1.92,.37-.51,.89-.89,1.57-1.14,.68-.25,1.49-.38,2.44-.38h2.7v1.54h-2.76c-.71,0-1.25,.17-1.62,.51-.37,.34-.56,.78-.56,1.33s.19,.98,.56,1.31c.37,.33,.91,.49,1.62,.49,.41,0,.81-.08,1.18-.23s.68-.41,.93-.77c.25-.36,.38-.87,.41-1.52l.6,.78c-.07,.76-.25,1.4-.55,1.91-.3,.51-.71,.91-1.24,1.18-.53,.27-1.17,.41-1.93,.41Zm3.5-.28v-3.22h-.38v-3.64c0-.67-.17-1.17-.52-1.52-.35-.35-.86-.52-1.54-.52-.37,0-.79,0-1.24,.02s-.9,.03-1.33,.05c-.43,.02-.82,.04-1.15,.07v-2.02c.29-.03,.62-.05,.97-.07,.35-.02,.72-.04,1.1-.05,.38-.01,.74-.02,1.09-.02,1.09,0,2,.14,2.72,.42,.72,.28,1.26,.72,1.61,1.33s.53,1.42,.53,2.43v6.74h-1.86Z"/>
      <path class="cls-1" d="M139.94,58.69v-10.78h1.86v4.62h-.22c0-1.07,.14-1.97,.43-2.7,.29-.73,.72-1.29,1.31-1.67s1.31-.57,2.18-.57h.1c1.33,0,2.33,.42,2.98,1.26,.65,.84,.98,2.07,.98,3.68v6.16h-2.34v-6.48c0-.75-.21-1.35-.64-1.81-.43-.46-1.01-.69-1.76-.69s-1.37,.24-1.84,.71c-.47,.47-.7,1.1-.7,1.89v6.38h-2.34Z"/>
      <path class="cls-1" d="M151.4,49.71v-1.8h3.92v1.8h-3.92Zm2.34-3.3c-.48,0-.84-.13-1.07-.38-.23-.25-.35-.58-.35-.98s.12-.71,.35-.97c.23-.26,.59-.39,1.07-.39s.86,.13,1.09,.39c.23,.26,.35,.58,.35,.97s-.12,.73-.35,.98c-.23,.25-.6,.38-1.09,.38Zm-.76,12.28v-10.78h2.34v10.78h-2.34Z"/>
      <path class="cls-1" d="M157.81,58.69v-2.18l5.6-6.7v.32l-.38-.52,.3,.14h-5.56v-1.84h7.94v2.18l-5.6,6.7v-.28l.4,.54-.3-.2h5.76v1.84h-8.16Z"/>
      <path class="cls-1" d="M171.48,58.97c-.79,0-1.47-.14-2.06-.41-.59-.27-1.04-.67-1.36-1.2-.32-.53-.48-1.16-.48-1.89,0-.77,.18-1.41,.55-1.92,.37-.51,.89-.89,1.57-1.14,.68-.25,1.49-.38,2.44-.38h2.7v1.54h-2.76c-.71,0-1.25,.17-1.62,.51-.37,.34-.56,.78-.56,1.33s.19,.98,.56,1.31c.37,.33,.91,.49,1.62,.49,.41,0,.81-.08,1.18-.23s.68-.41,.93-.77c.25-.36,.38-.87,.41-1.52l.6,.78c-.07,.76-.25,1.4-.55,1.91-.3,.51-.71,.91-1.24,1.18-.53,.27-1.17,.41-1.93,.41Zm3.5-.28v-3.22h-.38v-3.64c0-.67-.17-1.17-.52-1.52-.35-.35-.86-.52-1.54-.52-.37,0-.79,0-1.24,.02s-.9,.03-1.33,.05c-.43,.02-.82,.04-1.15,.07v-2.02c.29-.03,.62-.05,.97-.07,.35-.02,.72-.04,1.1-.05,.38-.01,.74-.02,1.09-.02,1.09,0,2,.14,2.72,.42,.72,.28,1.26,.72,1.61,1.33s.53,1.42,.53,2.43v6.74h-1.86Z"/>
      <path class="cls-1" d="M184.71,59.05c-.92,0-1.72-.16-2.41-.47-.69-.31-1.25-.74-1.7-1.28-.45-.54-.78-1.14-1-1.8-.22-.66-.33-1.33-.33-2.01v-.36c0-.71,.11-1.39,.34-2.05,.23-.66,.57-1.26,1.02-1.79,.45-.53,1.02-.96,1.69-1.27,.67-.31,1.46-.47,2.37-.47s1.74,.17,2.47,.52,1.31,.84,1.75,1.47c.44,.63,.69,1.37,.74,2.21h-2.26c-.08-.6-.35-1.11-.81-1.52-.46-.41-1.09-.62-1.89-.62-.69,0-1.27,.16-1.72,.48-.45,.32-.79,.76-1.02,1.31-.23,.55-.34,1.19-.34,1.91s.11,1.32,.33,1.88,.56,1,1.02,1.32c.46,.32,1.04,.48,1.75,.48,.55,0,1.02-.1,1.41-.29,.39-.19,.71-.45,.95-.78,.24-.33,.38-.7,.42-1.13h2.28c-.04,.87-.29,1.62-.74,2.25-.45,.63-1.05,1.13-1.8,1.48s-1.59,.53-2.52,.53Z"/>
      <path class="cls-1" d="M190.3,62.77v-2.04h.98c.51,0,.89-.14,1.16-.41s.4-.66,.4-1.15v-11.26h2.26v11.04c0,.95-.14,1.7-.41,2.26-.27,.56-.71,.96-1.3,1.2-.59,.24-1.37,.36-2.33,.36h-.76Zm.9-13.06v-1.8h3.9v1.8h-3.9Zm2.32-3.42c-.48,0-.84-.13-1.07-.38-.23-.25-.35-.58-.35-.98s.12-.71,.35-.97c.23-.26,.59-.39,1.07-.39s.85,.13,1.08,.39c.23,.26,.34,.58,.34,.97s-.11,.73-.34,.98c-.23,.25-.59,.38-1.08,.38Z"/>
      <path class="cls-1" d="M197.27,49.71v-1.8h3.92v1.8h-3.92Zm2.34-3.3c-.48,0-.84-.13-1.07-.38-.23-.25-.35-.58-.35-.98s.12-.71,.35-.97c.23-.26,.59-.39,1.07-.39s.86,.13,1.09,.39c.23,.26,.35,.58,.35,.97s-.12,.73-.35,.98c-.23,.25-.6,.38-1.09,.38Zm-.76,12.28v-10.78h2.34v10.78h-2.34Z"/>
    </g>
    <g>
      <path class="cls-1" d="M27.35,80.37v-10.29h1.68v10.29h-1.68Zm1.4-3.35v-1.47h2.13c.45,0,.82-.09,1.11-.26,.29-.17,.52-.41,.68-.71,.16-.3,.24-.65,.24-1.03s-.08-.74-.24-1.04c-.16-.3-.39-.54-.68-.71s-.67-.25-1.11-.25h-2.13v-1.47h1.93c.85,0,1.57,.14,2.15,.41,.58,.28,1.03,.66,1.33,1.16,.3,.5,.46,1.09,.46,1.79v.22c0,.68-.15,1.27-.46,1.78-.3,.5-.75,.89-1.33,1.17-.58,.28-1.3,.41-2.15,.41h-1.93Z"/>
      <path class="cls-1" d="M35.99,80.37v-7.55h1.3v3.15h-.06c0-1.08,.24-1.89,.71-2.43,.48-.54,1.18-.8,2.11-.8h.27v1.44h-.5c-.71,0-1.25,.19-1.63,.57s-.57,.92-.57,1.62v4h-1.64Z"/>
      <path class="cls-1" d="M45.09,80.62c-.66,0-1.25-.11-1.75-.33-.5-.22-.93-.51-1.27-.88-.34-.36-.61-.78-.78-1.24-.18-.46-.27-.94-.27-1.44v-.28c0-.5,.09-.98,.27-1.44,.18-.47,.45-.88,.8-1.25,.35-.37,.78-.66,1.28-.88,.5-.21,1.08-.32,1.72-.32s1.22,.11,1.71,.32,.93,.51,1.28,.88c.35,.37,.62,.79,.8,1.25s.27,.95,.27,1.44v.28c0,.5-.09,.97-.27,1.44-.18,.46-.44,.88-.78,1.24-.34,.36-.77,.66-1.27,.88-.5,.22-1.09,.33-1.75,.33Zm0-1.43c.51,0,.95-.11,1.32-.34,.36-.23,.64-.54,.83-.93,.19-.39,.29-.83,.29-1.32s-.1-.94-.29-1.33c-.2-.39-.48-.7-.84-.93s-.8-.34-1.3-.34-.94,.12-1.3,.34c-.36,.23-.64,.54-.84,.93-.2,.39-.29,.83-.29,1.33s.1,.92,.29,1.32c.19,.39,.47,.7,.83,.93,.36,.23,.8,.34,1.32,.34Z"/>
      <path class="cls-1" d="M53.48,80.59c-1.02,0-1.81-.21-2.37-.64-.56-.43-.86-1.02-.89-1.78h1.51c.02,.28,.16,.54,.43,.77,.27,.23,.71,.35,1.33,.35,.52,0,.93-.1,1.23-.31s.45-.46,.45-.77c0-.28-.11-.5-.33-.67-.22-.16-.59-.27-1.11-.33l-.74-.07c-.78-.08-1.39-.31-1.84-.69-.45-.37-.68-.88-.68-1.51,0-.5,.13-.93,.38-1.27,.25-.35,.6-.61,1.04-.8,.44-.19,.95-.28,1.53-.28,.9,0,1.62,.2,2.17,.59s.83,.98,.85,1.74h-1.5c-.02-.29-.15-.53-.41-.73-.25-.2-.62-.29-1.12-.29-.47,0-.82,.09-1.07,.28s-.37,.42-.37,.71c0,.26,.09,.47,.28,.62s.49,.25,.91,.29l.74,.07c.85,.09,1.52,.33,2.02,.71,.5,.38,.75,.9,.75,1.57,0,.49-.13,.91-.41,1.27-.27,.36-.65,.65-1.13,.85-.48,.2-1.04,.3-1.67,.3Z"/>
      <path class="cls-1" d="M57.41,74.04v-1.22h5.26v1.22h-5.26Zm4.13,6.41c-.62,0-1.15-.08-1.58-.25s-.75-.46-.97-.87c-.22-.41-.33-.97-.33-1.67v-7.04h1.55v7.18c0,.39,.11,.69,.32,.9s.51,.32,.89,.32h1.26v1.43h-1.13Z"/>
      <path class="cls-1" d="M67.59,80.62c-.66,0-1.25-.11-1.75-.33-.5-.22-.93-.51-1.27-.88-.34-.36-.61-.78-.78-1.24-.18-.46-.27-.94-.27-1.44v-.28c0-.5,.09-.98,.27-1.44,.18-.47,.45-.88,.8-1.25,.35-.37,.78-.66,1.28-.88,.5-.21,1.08-.32,1.72-.32s1.22,.11,1.71,.32,.93,.51,1.28,.88c.35,.37,.62,.79,.8,1.25s.27,.95,.27,1.44v.28c0,.5-.09,.97-.27,1.44-.18,.46-.44,.88-.78,1.24-.34,.36-.77,.66-1.27,.88-.5,.22-1.09,.33-1.75,.33Zm0-1.43c.51,0,.95-.11,1.32-.34,.36-.23,.64-.54,.83-.93,.19-.39,.29-.83,.29-1.32s-.1-.94-.29-1.33c-.2-.39-.48-.7-.84-.93s-.8-.34-1.3-.34-.94,.12-1.3,.34c-.36,.23-.64,.54-.84,.93-.2,.39-.29,.83-.29,1.33s.1,.92,.29,1.32c.19,.39,.47,.7,.83,.93,.36,.23,.8,.34,1.32,.34Z"/>
      <path class="cls-1" d="M73.42,82.64l-1.29-.5,1.36-3.83,1.37,.52-1.44,3.82Z"/>
      <path class="cls-1" d="M82.21,80.59c-1.02,0-1.81-.21-2.37-.64-.56-.43-.86-1.02-.89-1.78h1.51c.02,.28,.16,.54,.43,.77,.27,.23,.71,.35,1.33,.35,.52,0,.93-.1,1.23-.31s.45-.46,.45-.77c0-.28-.11-.5-.33-.67-.22-.16-.59-.27-1.11-.33l-.74-.07c-.78-.08-1.39-.31-1.84-.69-.45-.37-.68-.88-.68-1.51,0-.5,.13-.93,.38-1.27,.25-.35,.6-.61,1.04-.8,.44-.19,.95-.28,1.53-.28,.9,0,1.62,.2,2.17,.59s.83,.98,.85,1.74h-1.5c-.02-.29-.15-.53-.41-.73-.25-.2-.62-.29-1.12-.29-.47,0-.82,.09-1.07,.28s-.37,.42-.37,.71c0,.26,.09,.47,.28,.62s.49,.25,.91,.29l.74,.07c.85,.09,1.52,.33,2.02,.71,.5,.38,.75,.9,.75,1.57,0,.49-.13,.91-.41,1.27-.27,.36-.65,.65-1.13,.85-.48,.2-1.04,.3-1.67,.3Z"/>
      <path class="cls-1" d="M86.57,80.37v-1.53l3.92-4.69v.22l-.27-.36,.21,.1h-3.89v-1.29h5.56v1.53l-3.92,4.69v-.2l.28,.38-.21-.14h4.03v1.29h-5.71Z"/>
      <path class="cls-1" d="M95.6,80.2l-2.56-7.38h1.67l2.45,7.38h-1.55Zm-1.92,3.12v-1.44h1.25c.29,0,.54-.04,.74-.1,.21-.07,.37-.19,.5-.36s.24-.4,.32-.69l2.2-7.9h1.58l-2.38,8.29c-.15,.52-.36,.95-.62,1.27-.27,.33-.6,.57-1.01,.71-.41,.15-.89,.22-1.46,.22h-1.12Zm2.32-3.12v-1.33h1.62v1.33h-1.62Z"/>
      <path class="cls-1" d="M105.77,80.62c-.62,0-1.17-.14-1.65-.41s-.86-.66-1.13-1.18c-.28-.51-.43-1.13-.46-1.86h.34v3.19h-1.3v-10.22h1.64v5.04l-.49,.91c.03-.8,.18-1.46,.47-1.98,.28-.52,.66-.9,1.13-1.15,.47-.25,.99-.38,1.57-.38,.53,0,1.02,.1,1.45,.29,.43,.2,.81,.47,1.12,.82,.31,.35,.55,.76,.71,1.23s.25,.97,.25,1.51v.28c0,.54-.08,1.04-.25,1.51s-.41,.88-.74,1.24c-.32,.36-.71,.64-1.15,.85-.45,.21-.95,.31-1.5,.31Zm-.29-1.41c.46,0,.86-.11,1.2-.34,.34-.22,.61-.53,.8-.93s.29-.85,.29-1.37-.1-.98-.29-1.37c-.2-.39-.46-.69-.81-.9s-.74-.32-1.2-.32c-.41,0-.79,.09-1.15,.28s-.64,.46-.85,.8c-.21,.35-.32,.77-.32,1.27v.6c0,.48,.11,.88,.33,1.22,.22,.34,.51,.6,.86,.78,.36,.18,.73,.27,1.13,.27Z"/>
      <path class="cls-1" d="M111.1,80.37v-10.22h1.64v10.22h-1.64Zm5.24,0l-2.69-3.51h-1.18l3.32-4.03h1.74l-3.05,3.67,.07-.84,3.67,4.72h-1.88Z"/>
      <path class="cls-1" d="M122.44,80.62c-.66,0-1.25-.11-1.75-.33-.5-.22-.93-.51-1.27-.88-.34-.36-.61-.78-.78-1.24-.18-.46-.27-.94-.27-1.44v-.28c0-.5,.09-.98,.27-1.44,.18-.47,.45-.88,.8-1.25,.35-.37,.78-.66,1.28-.88,.5-.21,1.08-.32,1.72-.32s1.22,.11,1.71,.32,.93,.51,1.28,.88c.35,.37,.62,.79,.8,1.25s.27,.95,.27,1.44v.28c0,.5-.09,.97-.27,1.44-.18,.46-.44,.88-.78,1.24-.34,.36-.77,.66-1.27,.88-.5,.22-1.09,.33-1.75,.33Zm0-1.43c.51,0,.95-.11,1.32-.34,.36-.23,.64-.54,.83-.93,.19-.39,.29-.83,.29-1.32s-.1-.94-.29-1.33c-.2-.39-.48-.7-.84-.93s-.8-.34-1.3-.34-.94,.12-1.3,.34c-.36,.23-.64,.54-.84,.93-.2,.39-.29,.83-.29,1.33s.1,.92,.29,1.32c.19,.39,.47,.7,.83,.93,.36,.23,.8,.34,1.32,.34Z"/>
      <path class="cls-1" d="M128.27,82.64l-1.29-.5,1.36-3.83,1.37,.52-1.44,3.82Z"/>
      <path class="cls-1" d="M133.96,80.37v-1.53l3.92-4.69v.22l-.27-.36,.21,.1h-3.89v-1.29h5.56v1.53l-3.92,4.69v-.2l.28,.38-.21-.14h4.03v1.29h-5.71Z"/>
      <path class="cls-1" d="M143.42,80.57c-.55,0-1.03-.1-1.44-.29-.41-.19-.73-.47-.95-.84-.22-.37-.34-.81-.34-1.32,0-.54,.13-.99,.38-1.34s.62-.62,1.1-.8c.48-.18,1.05-.27,1.71-.27h1.89v1.08h-1.93c-.49,0-.87,.12-1.13,.36s-.39,.55-.39,.93,.13,.69,.39,.92,.64,.34,1.13,.34c.29,0,.57-.05,.83-.16,.26-.11,.48-.29,.65-.54s.27-.61,.29-1.06l.42,.55c-.05,.53-.17,.98-.38,1.34s-.5,.63-.87,.83c-.37,.19-.82,.29-1.35,.29Zm2.45-.2v-2.25h-.27v-2.55c0-.47-.12-.82-.36-1.06-.24-.24-.6-.36-1.08-.36-.26,0-.55,0-.87,.01-.32,0-.63,.02-.93,.04-.3,.01-.57,.03-.8,.05v-1.41c.21-.02,.43-.04,.68-.05s.5-.03,.77-.04c.27,0,.52-.01,.76-.01,.76,0,1.4,.1,1.9,.29s.88,.51,1.13,.93c.25,.42,.37,.99,.37,1.7v4.72h-1.3Z"/>
      <path class="cls-1" d="M155.42,80.62c-.54,0-1.03-.1-1.48-.29-.44-.2-.83-.47-1.16-.83-.33-.35-.59-.76-.76-1.23-.18-.47-.27-.98-.27-1.53v-.27c0-.54,.09-1.05,.26-1.52,.17-.47,.42-.88,.74-1.24s.7-.63,1.14-.83c.44-.2,.94-.3,1.48-.3,.58,0,1.1,.12,1.56,.37,.46,.25,.84,.63,1.12,1.13,.29,.51,.44,1.15,.47,1.94l-.56-.77v-5.11h1.64v10.22h-1.3v-3.28h.36c-.03,.81-.19,1.48-.5,2-.3,.52-.69,.91-1.17,1.15-.48,.25-1,.37-1.57,.37Zm.31-1.41c.42,0,.8-.09,1.14-.28s.62-.46,.83-.82,.31-.78,.31-1.27v-.6c0-.48-.11-.88-.32-1.22-.21-.34-.5-.59-.84-.77-.34-.18-.72-.27-1.13-.27-.46,0-.86,.11-1.21,.33-.35,.22-.62,.53-.82,.92-.2,.39-.29,.85-.29,1.37s.1,.99,.3,1.39c.2,.39,.48,.69,.83,.9,.35,.21,.76,.31,1.2,.31Z"/>
      <path class="cls-1" d="M163.88,80.57c-.55,0-1.03-.1-1.44-.29-.41-.19-.73-.47-.95-.84-.22-.37-.34-.81-.34-1.32,0-.54,.13-.99,.38-1.34s.62-.62,1.1-.8c.48-.18,1.05-.27,1.71-.27h1.89v1.08h-1.93c-.49,0-.87,.12-1.13,.36s-.39,.55-.39,.93,.13,.69,.39,.92,.64,.34,1.13,.34c.29,0,.57-.05,.83-.16,.26-.11,.48-.29,.65-.54s.27-.61,.29-1.06l.42,.55c-.05,.53-.17,.98-.38,1.34s-.5,.63-.87,.83c-.37,.19-.82,.29-1.35,.29Zm2.45-.2v-2.25h-.27v-2.55c0-.47-.12-.82-.36-1.06-.24-.24-.6-.36-1.08-.36-.26,0-.55,0-.87,.01-.32,0-.63,.02-.93,.04-.3,.01-.57,.03-.8,.05v-1.41c.21-.02,.43-.04,.68-.05s.5-.03,.77-.04c.27,0,.52-.01,.76-.01,.76,0,1.4,.1,1.9,.29s.88,.51,1.13,.93c.25,.42,.37,.99,.37,1.7v4.72h-1.3Z"/>
      <path class="cls-1" d="M169.68,80.37v-7.55h1.3v3.15h-.06c0-1.08,.24-1.89,.71-2.43,.48-.54,1.18-.8,2.11-.8h.27v1.44h-.5c-.71,0-1.25,.19-1.63,.57s-.57,.92-.57,1.62v4h-1.64Z"/>
      <path class="cls-1" d="M175.27,80.37v-7.55h1.3v3.25h-.15c0-.75,.1-1.38,.29-1.89,.19-.51,.48-.91,.87-1.18,.39-.27,.87-.41,1.45-.41h.07c.59,0,1.08,.13,1.46,.41,.39,.27,.68,.66,.87,1.18,.19,.51,.29,1.14,.29,1.89h-.45c0-.75,.1-1.38,.29-1.89,.2-.51,.49-.91,.88-1.18,.39-.27,.88-.41,1.46-.41h.07c.59,0,1.08,.13,1.47,.41,.39,.27,.69,.66,.88,1.18,.2,.51,.29,1.14,.29,1.89v4.3h-1.64v-4.54c0-.55-.14-.98-.41-1.29-.28-.31-.66-.46-1.14-.46s-.91,.16-1.2,.48c-.3,.32-.45,.77-.45,1.34v4.47h-1.65v-4.54c0-.55-.14-.98-.41-1.29-.27-.31-.65-.46-1.13-.46s-.91,.16-1.21,.48-.46,.77-.46,1.34v4.47h-1.64Z"/>
      <path class="cls-1" d="M192.25,80.62c-.66,0-1.25-.11-1.75-.33-.5-.22-.93-.51-1.27-.88-.34-.36-.61-.78-.78-1.24-.18-.46-.27-.94-.27-1.44v-.28c0-.5,.09-.98,.27-1.44,.18-.47,.45-.88,.8-1.25,.35-.37,.78-.66,1.28-.88,.5-.21,1.08-.32,1.72-.32s1.22,.11,1.71,.32,.93,.51,1.28,.88c.35,.37,.62,.79,.8,1.25s.27,.95,.27,1.44v.28c0,.5-.09,.97-.27,1.44-.18,.46-.44,.88-.78,1.24-.34,.36-.77,.66-1.27,.88-.5,.22-1.09,.33-1.75,.33Zm0-1.43c.51,0,.95-.11,1.32-.34,.36-.23,.64-.54,.83-.93,.19-.39,.29-.83,.29-1.32s-.1-.94-.29-1.33c-.2-.39-.48-.7-.84-.93s-.8-.34-1.3-.34-.94,.12-1.3,.34c-.36,.23-.64,.54-.84,.93-.2,.39-.29,.83-.29,1.33s.1,.92,.29,1.32c.19,.39,.47,.7,.83,.93,.36,.23,.8,.34,1.32,.34Z"/>
      <path class="cls-1" d="M197.93,80.37v-1.89h1.96v1.89h-1.96Zm.14-3.19v-7.03h1.68v7.03h-1.68Z"/>
    </g>
    <g>
      <path class="cls-1" d="M131.97,124.84c-1.19,0-2.19-.19-3.01-.57-.82-.38-1.43-.89-1.85-1.55-.42-.65-.63-1.41-.63-2.26h2.86c0,.34,.09,.65,.28,.94,.19,.29,.47,.52,.85,.69,.38,.17,.88,.26,1.49,.26,.55,0,1.01-.07,1.39-.22,.37-.14,.65-.34,.85-.6,.19-.26,.29-.56,.29-.89,0-.42-.18-.75-.54-1-.36-.25-.94-.4-1.75-.48l-.99-.09c-1.31-.11-2.35-.52-3.13-1.22-.78-.71-1.17-1.64-1.17-2.81,0-.84,.2-1.57,.6-2.18,.4-.61,.96-1.08,1.68-1.41,.72-.33,1.57-.5,2.56-.5s1.92,.18,2.66,.53c.74,.35,1.3,.85,1.7,1.49,.4,.64,.59,1.4,.59,2.26h-2.88c0-.32-.08-.62-.23-.89-.16-.27-.39-.49-.69-.66-.31-.17-.69-.25-1.14-.25-.43,0-.79,.07-1.09,.22-.29,.14-.51,.34-.66,.58-.14,.25-.22,.51-.22,.8,0,.37,.13,.7,.4,.97,.26,.28,.7,.44,1.3,.49l1.01,.09c.96,.08,1.81,.29,2.54,.62,.73,.33,1.3,.78,1.72,1.35,.41,.57,.62,1.26,.62,2.08s-.22,1.58-.66,2.21c-.44,.63-1.06,1.12-1.86,1.47-.8,.35-1.76,.52-2.88,.52Z"/>
      <path class="cls-1" d="M138.02,113.94v-2.57h10.35v2.57h-10.35Zm3.69,10.57v-10.93h2.95v10.93h-2.95Z"/>
      <path class="cls-1" d="M147.52,124.5l4.34-13.14h4.77l4.5,13.14h-3.06l-3.64-11.11,.94,.38h-2.32l.97-.38-3.55,11.11h-2.95Zm3.29-3.26l.9-2.45h5.15l.92,2.45h-6.97Z"/>
      <path class="cls-1" d="M162.54,124.5v-13.25h2.95v13.25h-2.95Zm2.16-4.21v-2.32h3.24c.43,0,.81-.09,1.12-.26,.32-.17,.56-.42,.74-.74,.17-.32,.26-.69,.26-1.11s-.09-.79-.26-1.11c-.17-.32-.42-.56-.74-.74-.32-.17-.69-.26-1.12-.26h-3.24v-2.5h3.01c1.09,0,2.04,.17,2.84,.5,.8,.33,1.42,.82,1.85,1.47,.43,.65,.65,1.46,.65,2.45v.29c0,.97-.22,1.78-.66,2.42-.44,.64-1.06,1.12-1.85,1.44-.8,.32-1.74,.48-2.83,.48h-3.01Zm5.81,4.21l-3.85-5.65h3.24l4.03,5.65h-3.42Z"/>
      <path class="cls-1" d="M174.29,113.94v-2.57h10.35v2.57h-10.35Zm3.69,10.57v-10.93h2.95v10.93h-2.95Z"/>
    </g>
  </g>
  <g id="arrow">
    <polygon class="cls-1" points="192.9 111.36 192.9 124.72 200.37 118.04 192.9 111.36"/>
  </g>
</svg>